<?xml version="1.0"?><svg width="640" height="480" xmlns="http://www.w3.org/2000/svg">
 <title>river</title>
 <metadata id="metadata7">image/svg+xmlFlourish Eleven2006 SeptemberNathan EadyGalion Public LibraryOpen Clip Art Library</metadata>
 <g>
  <title>Layer 1</title>
  <g id="layer1" transform="rotate(53.393, 367.783, 326.888)">
   <path fill="#282ee0" fill-rule="evenodd" stroke="#000000" stroke-width="0" id="path1324" d="m879.854736,447.287659c48.485413,-36.8172 52.050049,-64.594116 50.036011,-128.315704c-1.975098,-62.491394 -34.893433,-98.319855 -79.004395,-119.983505c-44.110474,-21.663742 -95.463196,-4.166107 -118.506104,31.662338c-23.576355,36.657959 -21.726257,74.989655 1.316711,101.65271c15.556152,18.000092 33.576721,0 32.918518,-16.664459c-0.907043,-22.956604 -38.185486,-17.497559 -10.533936,-54.992432c18.722107,-25.386841 57.277954,-22.496887 77.687378,6.665741c20.409363,29.162689 31.487366,81.759003 3.950195,109.984955c-79.662537,81.655457 -247.546631,-164.977371 -450.324097,-166.643753c-96.128723,-0.795197 -241.041153,169.319778 -313.383347,186.641068c-170.517441,40.827576 -264.005692,-106.652191 -268.614304,-103.319214c-4.608612,3.332886 105.997375,161.64447 273.881287,129.982178c81.146729,-15.303955 230.388733,-173.713593 316.016907,-169.976715c190.926727,8.332245 372.636505,278.295197 484.559174,193.306793z"/>
  </g>
  <ellipse fill="#3941dd" stroke="#000000" stroke-width="0" cx="421" cy="272" id="svg_3" ry="3"/>
  <path fill="none" stroke="#000000" stroke-width="0" stroke-dasharray="null" stroke-linejoin="null" stroke-linecap="null" id="svg_7" d="m458,390c-1,0 -2,0 -2,-1c0,-1 -0.292908,-1.292908 -1,-2c-0.707092,-0.707092 -2,0 -3,0c-1,0 -1.693451,-0.458801 -3,-1c-0.923889,-0.38269 -2,0 -3,0l0,-1"/>
  <path fill="none" stroke="#000000" stroke-width="0" stroke-dasharray="null" stroke-linejoin="null" stroke-linecap="null" id="svg_8" d="m454,382c1,0 2,1 2,3c0,1 1.61731,1.076111 2,2c0.541199,1.306549 2,2 3,2l1,0"/>
  <polyline fill="none" stroke="#000000" stroke-width="0" stroke-dasharray="null" stroke-linejoin="null" stroke-linecap="round" points="462,389 461,389 " id="svg_9"/>
  <path fill="none" stroke="#000000" stroke-width="0" stroke-dasharray="null" stroke-linejoin="null" stroke-linecap="null" id="svg_10" d="m455,391c0,-1 -0.292908,-1.292908 -1,-2c-1.414215,-1.414215 0,-3 -1,-3l0,-1l-1,-1l-1,-1"/>
 </g>
</svg>